<svg id="visual" viewBox="0 0 900 600" width="900" height="600" xmlns="http://www.w3.org/2000/svg" xmlns:xlink="http://www.w3.org/1999/xlink" version="1.1"><g stroke-width="1" stroke-linejoin="bevel"><path d="M479.3 319L412 321L472 341Z" fill="#003da1" stroke="#003da1"></path><path d="M412 321L422.7 349L472 341Z" fill="#002b5d" stroke="#002b5d"></path><path d="M412 321L382.7 338L422.7 349Z" fill="#00182b" stroke="#00182b"></path><path d="M479.3 319L432 225L412 321Z" fill="#00182b" stroke="#00182b"></path><path d="M333.4 297L342.4 333L382.7 338Z" fill="#003da1" stroke="#003da1"></path><path d="M474 451L498.3 404L422.7 349Z" fill="#1b44c2" stroke="#1b44c2"></path><path d="M422.7 349L498.3 404L472 341Z" fill="#00101c" stroke="#00101c"></path><path d="M472 341L537.3 376L479.3 319Z" fill="#00357f" stroke="#00357f"></path><path d="M333.4 297L382.7 338L412 321Z" fill="#00182b" stroke="#00182b"></path><path d="M377.7 447L474 451L422.7 349Z" fill="#0941b1" stroke="#0941b1"></path><path d="M498.3 404L537.3 376L472 341Z" fill="#1b44c2" stroke="#1b44c2"></path><path d="M479.3 319L543.3 254L432 225Z" fill="#00182b" stroke="#00182b"></path><path d="M348.4 230L333.4 297L412 321Z" fill="#0941b1" stroke="#0941b1"></path><path d="M578.6 312L543.3 254L479.3 319Z" fill="#00182b" stroke="#00182b"></path><path d="M449 145L385.7 211L432 225Z" fill="#002b5d" stroke="#002b5d"></path><path d="M432 225L385.7 211L412 321Z" fill="#001f3c" stroke="#001f3c"></path><path d="M385.7 211L348.4 230L412 321Z" fill="#003990" stroke="#003990"></path><path d="M537.3 376L578.6 312L479.3 319Z" fill="#00101c" stroke="#00101c"></path><path d="M377.7 447L422.7 349L382.7 338Z" fill="#003990" stroke="#003990"></path><path d="M530.3 487L600.6 404L537.3 376Z" fill="#00306e" stroke="#00306e"></path><path d="M578.6 312L562.6 252L543.3 254Z" fill="#00254d" stroke="#00254d"></path><path d="M534.3 165L449 145L432 225Z" fill="#001f3c" stroke="#001f3c"></path><path d="M305.4 423L377.7 447L382.7 338Z" fill="#00306e" stroke="#00306e"></path><path d="M385.7 211L325.4 209L348.4 230Z" fill="#003da1" stroke="#003da1"></path><path d="M348.4 230L296.1 250L333.4 297Z" fill="#00357f" stroke="#00357f"></path><path d="M325.4 209L296.1 250L348.4 230Z" fill="#00254d" stroke="#00254d"></path><path d="M333.4 297L281.1 278L342.4 333Z" fill="#0941b1" stroke="#0941b1"></path><path d="M342.4 333L305.4 423L382.7 338Z" fill="#00357f" stroke="#00357f"></path><path d="M296.1 250L281.1 278L333.4 297Z" fill="#003990" stroke="#003990"></path><path d="M411.7 491L442 491L474 451Z" fill="#00101c" stroke="#00101c"></path><path d="M600.6 404L613.6 365L537.3 376Z" fill="#00101c" stroke="#00101c"></path><path d="M537.3 376L498.3 404L530.3 487Z" fill="#00101c" stroke="#00101c"></path><path d="M537.3 376L613.6 365L578.6 312Z" fill="#00254d" stroke="#00254d"></path><path d="M665.9 266L628.9 210L562.6 252Z" fill="#002b5d" stroke="#002b5d"></path><path d="M257.1 388L305.4 423L342.4 333Z" fill="#003da1" stroke="#003da1"></path><path d="M377.7 447L411.7 491L474 451Z" fill="#0941b1" stroke="#0941b1"></path><path d="M418 510L411.7 491L401.7 517Z" fill="#1b44c2" stroke="#1b44c2"></path><path d="M534.3 165L432 225L543.3 254Z" fill="#1b44c2" stroke="#1b44c2"></path><path d="M385.7 211L382.7 154L325.4 209Z" fill="#003990" stroke="#003990"></path><path d="M530.3 487L498.3 404L474 451Z" fill="#00182b" stroke="#00182b"></path><path d="M449 145L382.7 154L385.7 211Z" fill="#00182b" stroke="#00182b"></path><path d="M549.6 170L543.3 254L562.6 252Z" fill="#001f3c" stroke="#001f3c"></path><path d="M549.6 170L534.3 165L543.3 254Z" fill="#0941b1" stroke="#0941b1"></path><path d="M628.9 210L549.6 170L562.6 252Z" fill="#003990" stroke="#003990"></path><path d="M449 145L382.7 148L382.7 154Z" fill="#00182b" stroke="#00182b"></path><path d="M382.7 154L312.4 119L325.4 209Z" fill="#00182b" stroke="#00182b"></path><path d="M442 491L530.3 487L474 451Z" fill="#002b5d" stroke="#002b5d"></path><path d="M401.7 517L411.7 491L346.4 496Z" fill="#00306e" stroke="#00306e"></path><path d="M411.7 491L418 510L442 491Z" fill="#003990" stroke="#003990"></path><path d="M442 491L474.3 556L530.3 487Z" fill="#1b44c2" stroke="#1b44c2"></path><path d="M657.9 410L641.9 330L613.6 365Z" fill="#002b5d" stroke="#002b5d"></path><path d="M613.6 365L641.9 330L578.6 312Z" fill="#1b44c2" stroke="#1b44c2"></path><path d="M281.1 278L257.1 388L342.4 333Z" fill="#002b5d" stroke="#002b5d"></path><path d="M346.4 496L411.7 491L377.7 447Z" fill="#003990" stroke="#003990"></path><path d="M346.4 496L377.7 447L305.4 423Z" fill="#001f3c" stroke="#001f3c"></path><path d="M566.6 549L570.6 518L530.3 487Z" fill="#002b5d" stroke="#002b5d"></path><path d="M265.1 478L346.4 496L305.4 423Z" fill="#1b44c2" stroke="#1b44c2"></path><path d="M665.9 266L562.6 252L578.6 312Z" fill="#00182b" stroke="#00182b"></path><path d="M508.3 74L449 104L449 145Z" fill="#00357f" stroke="#00357f"></path><path d="M449 145L449 104L382.7 148Z" fill="#00101c" stroke="#00101c"></path><path d="M508.3 74L449 145L534.3 165Z" fill="#00182b" stroke="#00182b"></path><path d="M508.3 74L534.3 165L549.3 87Z" fill="#003da1" stroke="#003da1"></path><path d="M530.3 487L618.9 462L600.6 404Z" fill="#00357f" stroke="#00357f"></path><path d="M600.6 404L657.9 410L613.6 365Z" fill="#002b5d" stroke="#002b5d"></path><path d="M325.4 209L267.1 182L296.1 250Z" fill="#003990" stroke="#003990"></path><path d="M296.1 250L225.9 201L281.1 278Z" fill="#00182b" stroke="#00182b"></path><path d="M186.9 345L230.1 390L257.1 388Z" fill="#00182b" stroke="#00182b"></path><path d="M312.4 119L267.1 182L325.4 209Z" fill="#002b5d" stroke="#002b5d"></path><path d="M312.4 119L382.7 154L382.7 148Z" fill="#00182b" stroke="#00182b"></path><path d="M201.9 290L257.1 388L281.1 278Z" fill="#00182b" stroke="#00182b"></path><path d="M227.9 434L265.1 478L305.4 423Z" fill="#001f3c" stroke="#001f3c"></path><path d="M641.9 330L665.9 266L578.6 312Z" fill="#00254d" stroke="#00254d"></path><path d="M669.1 270L665.9 266L641.9 330Z" fill="#002b5d" stroke="#002b5d"></path><path d="M703.1 347L669.1 270L641.9 330Z" fill="#003990" stroke="#003990"></path><path d="M665.9 266L675.9 201L628.9 210Z" fill="#00306e" stroke="#00306e"></path><path d="M618.9 462L657.9 410L600.6 404Z" fill="#003990" stroke="#003990"></path><path d="M474.3 556L442 491L418 510Z" fill="#003990" stroke="#003990"></path><path d="M530.3 487L570.6 518L618.9 462Z" fill="#002b5d" stroke="#002b5d"></path><path d="M449 600L474.3 556L401.7 517Z" fill="#00357f" stroke="#00357f"></path><path d="M401.7 517L474.3 556L418 510Z" fill="#001f3c" stroke="#001f3c"></path><path d="M227.9 434L305.4 423L257.1 388Z" fill="#1b44c2" stroke="#1b44c2"></path><path d="M346.4 496L329.4 547L401.7 517Z" fill="#00254d" stroke="#00254d"></path><path d="M344.4 75L312.4 119L382.7 148Z" fill="#00182b" stroke="#00182b"></path><path d="M449 104L385.7 86L382.7 148Z" fill="#00357f" stroke="#00357f"></path><path d="M225.9 201L201.9 290L281.1 278Z" fill="#00182b" stroke="#00182b"></path><path d="M230.1 390L227.9 434L257.1 388Z" fill="#00254d" stroke="#00254d"></path><path d="M210.9 443L227.9 434L230.1 390Z" fill="#00101c" stroke="#00101c"></path><path d="M187.9 141L225.9 201L267.1 182Z" fill="#00357f" stroke="#00357f"></path><path d="M267.1 182L225.9 201L296.1 250Z" fill="#003990" stroke="#003990"></path><path d="M549.3 87L534.3 165L549.6 170Z" fill="#00357f" stroke="#00357f"></path><path d="M449 104L411 32L385.7 86Z" fill="#1b44c2" stroke="#1b44c2"></path><path d="M566.6 549L605.9 518L570.6 518Z" fill="#0941b1" stroke="#0941b1"></path><path d="M570.6 518L605.9 518L618.9 462Z" fill="#001f3c" stroke="#001f3c"></path><path d="M729.1 500L709.1 413L657.9 410Z" fill="#003990" stroke="#003990"></path><path d="M265.1 478L329.4 547L346.4 496Z" fill="#00254d" stroke="#00254d"></path><path d="M549.3 87L549.6 170L612.6 95Z" fill="#00182b" stroke="#00182b"></path><path d="M550.6 85L549.3 87L612.6 95Z" fill="#00182b" stroke="#00182b"></path><path d="M612.6 95L549.6 170L628.9 210Z" fill="#1b44c2" stroke="#1b44c2"></path><path d="M549.3 87L550.6 85L508.3 74Z" fill="#00357f" stroke="#00357f"></path><path d="M709.1 413L703.1 347L657.9 410Z" fill="#00254d" stroke="#00254d"></path><path d="M657.9 410L703.1 347L641.9 330Z" fill="#0941b1" stroke="#0941b1"></path><path d="M474.3 556L566.6 549L530.3 487Z" fill="#00182b" stroke="#00182b"></path><path d="M739.1 267L665.9 266L669.1 270Z" fill="#003990" stroke="#003990"></path><path d="M739.1 267L675.9 201L665.9 266Z" fill="#001f3c" stroke="#001f3c"></path><path d="M160.6 335L186.9 345L201.9 290Z" fill="#00357f" stroke="#00357f"></path><path d="M201.9 290L186.9 345L257.1 388Z" fill="#003da1" stroke="#003da1"></path><path d="M312.4 119L283.1 111L267.1 182Z" fill="#1b44c2" stroke="#1b44c2"></path><path d="M344.4 75L283.1 111L312.4 119Z" fill="#00357f" stroke="#00357f"></path><path d="M227.9 434L210.9 443L265.1 478Z" fill="#0941b1" stroke="#0941b1"></path><path d="M265.1 478L285.1 572L329.4 547Z" fill="#0941b1" stroke="#0941b1"></path><path d="M163.6 447L210.9 443L230.1 390Z" fill="#1b44c2" stroke="#1b44c2"></path><path d="M411 32L344.4 75L385.7 86Z" fill="#001f3c" stroke="#001f3c"></path><path d="M385.7 86L344.4 75L382.7 148Z" fill="#003990" stroke="#003990"></path><path d="M729.1 500L657.9 410L618.9 462Z" fill="#00306e" stroke="#00306e"></path><path d="M392.7 600L449 600L401.7 517Z" fill="#00101c" stroke="#00101c"></path><path d="M474.3 556L535.3 600L566.6 549Z" fill="#00306e" stroke="#00306e"></path><path d="M682.1 147L612.6 95L628.9 210Z" fill="#002b5d" stroke="#002b5d"></path><path d="M461 0L449 104L508.3 74Z" fill="#1b44c2" stroke="#1b44c2"></path><path d="M329.4 547L392.7 600L401.7 517Z" fill="#0941b1" stroke="#0941b1"></path><path d="M130.6 245L160.6 335L201.9 290Z" fill="#002b5d" stroke="#002b5d"></path><path d="M186.9 345L163.6 447L230.1 390Z" fill="#0941b1" stroke="#0941b1"></path><path d="M461 0L411 32L449 104Z" fill="#001f3c" stroke="#001f3c"></path><path d="M199.9 98L187.9 141L283.1 111Z" fill="#00357f" stroke="#00357f"></path><path d="M461 0L508.3 74L542.3 0Z" fill="#00101c" stroke="#00101c"></path><path d="M737.4 128L682.1 147L675.9 201Z" fill="#0941b1" stroke="#0941b1"></path><path d="M675.9 201L682.1 147L628.9 210Z" fill="#003da1" stroke="#003da1"></path><path d="M566.6 549L611.9 600L605.9 518Z" fill="#00357f" stroke="#00357f"></path><path d="M605.9 518L729.1 500L618.9 462Z" fill="#1b44c2" stroke="#1b44c2"></path><path d="M449 600L535.3 600L474.3 556Z" fill="#0941b1" stroke="#0941b1"></path><path d="M774.4 278L739.1 267L703.1 347Z" fill="#00254d" stroke="#00254d"></path><path d="M703.1 347L739.1 267L669.1 270Z" fill="#1b44c2" stroke="#1b44c2"></path><path d="M168.9 538L285.1 572L265.1 478Z" fill="#001f3c" stroke="#001f3c"></path><path d="M329.4 547L327.4 600L392.7 600Z" fill="#001f3c" stroke="#001f3c"></path><path d="M285.1 572L327.4 600L329.4 547Z" fill="#00182b" stroke="#00182b"></path><path d="M682.1 147L674.9 117L612.6 95Z" fill="#001f3c" stroke="#001f3c"></path><path d="M737.4 128L674.9 117L682.1 147Z" fill="#0941b1" stroke="#0941b1"></path><path d="M210.9 443L168.9 538L265.1 478Z" fill="#00182b" stroke="#00182b"></path><path d="M121.6 429L163.6 447L186.9 345Z" fill="#003990" stroke="#003990"></path><path d="M535.3 600L579.6 600L566.6 549Z" fill="#0941b1" stroke="#0941b1"></path><path d="M283.1 111L187.9 141L267.1 182Z" fill="#1b44c2" stroke="#1b44c2"></path><path d="M225.9 201L130.6 245L201.9 290Z" fill="#00357f" stroke="#00357f"></path><path d="M199.9 98L283.1 111L234.1 63Z" fill="#00101c" stroke="#00101c"></path><path d="M542.3 0L550.6 85L552.6 0Z" fill="#00306e" stroke="#00306e"></path><path d="M542.3 0L508.3 74L550.6 85Z" fill="#1b44c2" stroke="#1b44c2"></path><path d="M411 32L378.7 0L344.4 75Z" fill="#0941b1" stroke="#0941b1"></path><path d="M187.9 141L130.6 245L225.9 201Z" fill="#00182b" stroke="#00182b"></path><path d="M160.6 335L121.6 429L186.9 345Z" fill="#003da1" stroke="#003da1"></path><path d="M579.6 600L611.9 600L566.6 549Z" fill="#00357f" stroke="#00357f"></path><path d="M285.1 572L277.1 600L327.4 600Z" fill="#002b5d" stroke="#002b5d"></path><path d="M207.9 600L277.1 600L285.1 572Z" fill="#0941b1" stroke="#0941b1"></path><path d="M461 0L378.7 0L411 32Z" fill="#002b5d" stroke="#002b5d"></path><path d="M130.6 245L115.6 335L160.6 335Z" fill="#00306e" stroke="#00306e"></path><path d="M785.4 446L770.4 385L709.1 413Z" fill="#1b44c2" stroke="#1b44c2"></path><path d="M709.1 413L770.4 385L703.1 347Z" fill="#00182b" stroke="#00182b"></path><path d="M234.1 63L283.1 111L304.4 0Z" fill="#003da1" stroke="#003da1"></path><path d="M187.9 141L122.6 153L130.6 245Z" fill="#00254d" stroke="#00254d"></path><path d="M800.4 320L774.4 278L703.1 347Z" fill="#001f3c" stroke="#001f3c"></path><path d="M783.4 148L737.4 128L675.9 201Z" fill="#0941b1" stroke="#0941b1"></path><path d="M304.4 0L283.1 111L344.4 75Z" fill="#003da1" stroke="#003da1"></path><path d="M552.6 0L550.6 85L621.9 0Z" fill="#00357f" stroke="#00357f"></path><path d="M672.1 577L729.1 500L605.9 518Z" fill="#003da1" stroke="#003da1"></path><path d="M621.9 0L550.6 85L612.6 95Z" fill="#00357f" stroke="#00357f"></path><path d="M747.4 81L670.9 63L674.9 117Z" fill="#00182b" stroke="#00182b"></path><path d="M674.9 117L670.9 63L612.6 95Z" fill="#003da1" stroke="#003da1"></path><path d="M115.6 335L121.6 429L160.6 335Z" fill="#00357f" stroke="#00357f"></path><path d="M163.6 447L168.9 538L210.9 443Z" fill="#001f3c" stroke="#001f3c"></path><path d="M611.9 600L672.1 577L605.9 518Z" fill="#0941b1" stroke="#0941b1"></path><path d="M783.4 148L675.9 201L806.4 203Z" fill="#0941b1" stroke="#0941b1"></path><path d="M378.7 0L304.4 0L344.4 75Z" fill="#003990" stroke="#003990"></path><path d="M135.6 547L168.9 538L163.6 447Z" fill="#00254d" stroke="#00254d"></path><path d="M770.4 385L796.7 358L703.1 347Z" fill="#00357f" stroke="#00357f"></path><path d="M806.4 203L675.9 201L739.1 267Z" fill="#003da1" stroke="#003da1"></path><path d="M857.7 421L796.7 358L770.4 385Z" fill="#003990" stroke="#003990"></path><path d="M796.7 358L800.4 320L703.1 347Z" fill="#00357f" stroke="#00357f"></path><path d="M800.4 320L804.7 275L774.4 278Z" fill="#003990" stroke="#003990"></path><path d="M797.7 464L785.4 446L729.1 500Z" fill="#001f3c" stroke="#001f3c"></path><path d="M729.1 500L785.4 446L709.1 413Z" fill="#00182b" stroke="#00182b"></path><path d="M168.9 57L199.9 98L234.1 63Z" fill="#0941b1" stroke="#0941b1"></path><path d="M119.6 109L187.9 141L199.9 98Z" fill="#003da1" stroke="#003da1"></path><path d="M119.6 109L122.6 153L187.9 141Z" fill="#00306e" stroke="#00306e"></path><path d="M130.6 245L52.3 281L115.6 335Z" fill="#00182b" stroke="#00182b"></path><path d="M700.1 28L621.9 0L670.9 63Z" fill="#002b5d" stroke="#002b5d"></path><path d="M670.9 63L621.9 0L612.6 95Z" fill="#003da1" stroke="#003da1"></path><path d="M783.4 148L744.1 108L737.4 128Z" fill="#1b44c2" stroke="#1b44c2"></path><path d="M737.4 128L744.1 108L674.9 117Z" fill="#1b44c2" stroke="#1b44c2"></path><path d="M168.9 538L207.9 600L285.1 572Z" fill="#00254d" stroke="#00254d"></path><path d="M304.4 0L263.1 0L234.1 63Z" fill="#00357f" stroke="#00357f"></path><path d="M611.9 600L690.1 600L672.1 577Z" fill="#001f3c" stroke="#001f3c"></path><path d="M672.1 577L777.4 553L729.1 500Z" fill="#00357f" stroke="#00357f"></path><path d="M119.6 109L96.3 174L122.6 153Z" fill="#00306e" stroke="#00306e"></path><path d="M122.6 153L96.3 174L130.6 245Z" fill="#00182b" stroke="#00182b"></path><path d="M115.6 335L46.3 408L121.6 429Z" fill="#002b5d" stroke="#002b5d"></path><path d="M806.4 203L739.1 267L774.4 278Z" fill="#00182b" stroke="#00182b"></path><path d="M804.7 275L806.4 203L774.4 278Z" fill="#003da1" stroke="#003da1"></path><path d="M777.4 553L797.7 464L729.1 500Z" fill="#002b5d" stroke="#002b5d"></path><path d="M785.4 446L857.7 421L770.4 385Z" fill="#003990" stroke="#003990"></path><path d="M859.7 259L804.7 275L800.4 320Z" fill="#00254d" stroke="#00254d"></path><path d="M859.7 259L806.4 203L804.7 275Z" fill="#003990" stroke="#003990"></path><path d="M166.9 0L168.9 57L234.1 63Z" fill="#00306e" stroke="#00306e"></path><path d="M121.6 429L135.6 547L163.6 447Z" fill="#003990" stroke="#003990"></path><path d="M168.9 538L135.6 547L207.9 600Z" fill="#1b44c2" stroke="#1b44c2"></path><path d="M808.7 128L747.4 81L744.1 108Z" fill="#001f3c" stroke="#001f3c"></path><path d="M744.1 108L747.4 81L674.9 117Z" fill="#001f3c" stroke="#001f3c"></path><path d="M747.4 81L700.1 28L670.9 63Z" fill="#003da1" stroke="#003da1"></path><path d="M130.6 72L119.6 109L199.9 98Z" fill="#003da1" stroke="#003da1"></path><path d="M39.3 216L130.6 245L96.3 174Z" fill="#00182b" stroke="#00182b"></path><path d="M39.3 216L52.3 281L130.6 245Z" fill="#00357f" stroke="#00357f"></path><path d="M121.6 429L43.3 508L135.6 547Z" fill="#00101c" stroke="#00101c"></path><path d="M168.9 57L130.6 72L199.9 98Z" fill="#00357f" stroke="#00357f"></path><path d="M0 189L39.3 216L96.3 174Z" fill="#00306e" stroke="#00306e"></path><path d="M166.9 0L130.6 72L168.9 57Z" fill="#00306e" stroke="#00306e"></path><path d="M690.1 600L777.4 553L672.1 577Z" fill="#00182b" stroke="#00182b"></path><path d="M27.3 387L46.3 408L115.6 335Z" fill="#1b44c2" stroke="#1b44c2"></path><path d="M783.4 148L808.7 128L744.1 108Z" fill="#00182b" stroke="#00182b"></path><path d="M757.4 0L709.1 0L700.1 28Z" fill="#003da1" stroke="#003da1"></path><path d="M837.7 183L808.7 128L783.4 148Z" fill="#00101c" stroke="#00101c"></path><path d="M837.7 183L783.4 148L806.4 203Z" fill="#1b44c2" stroke="#1b44c2"></path><path d="M757.4 0L700.1 28L747.4 81Z" fill="#0941b1" stroke="#0941b1"></path><path d="M700.1 28L709.1 0L621.9 0Z" fill="#00101c" stroke="#00101c"></path><path d="M859.7 259L837.7 183L806.4 203Z" fill="#003990" stroke="#003990"></path><path d="M859.7 259L800.4 320L900 283Z" fill="#001f3c" stroke="#001f3c"></path><path d="M857.7 421L785.4 446L797.7 464Z" fill="#0941b1" stroke="#0941b1"></path><path d="M900 283L800.4 320L900 393Z" fill="#00306e" stroke="#00306e"></path><path d="M46.3 408L49.3 455L121.6 429Z" fill="#0941b1" stroke="#0941b1"></path><path d="M30.3 104L96.3 174L119.6 109Z" fill="#1b44c2" stroke="#1b44c2"></path><path d="M52.3 281L27.3 387L115.6 335Z" fill="#00101c" stroke="#00101c"></path><path d="M0 278L27.3 387L52.3 281Z" fill="#002b5d" stroke="#002b5d"></path><path d="M46.3 408L0 455L49.3 455Z" fill="#00357f" stroke="#00357f"></path><path d="M900 455L857.7 421L797.7 464Z" fill="#001f3c" stroke="#001f3c"></path><path d="M263.1 0L166.9 0L234.1 63Z" fill="#002b5d" stroke="#002b5d"></path><path d="M130.6 72L77.3 63L119.6 109Z" fill="#00254d" stroke="#00254d"></path><path d="M59.3 600L115.6 600L135.6 547Z" fill="#1b44c2" stroke="#1b44c2"></path><path d="M135.6 547L115.6 600L207.9 600Z" fill="#0941b1" stroke="#0941b1"></path><path d="M49.3 455L43.3 508L121.6 429Z" fill="#00182b" stroke="#00182b"></path><path d="M0 496L43.3 508L49.3 455Z" fill="#003990" stroke="#003990"></path><path d="M690.1 600L791.4 600L777.4 553Z" fill="#00101c" stroke="#00101c"></path><path d="M900 511L900 455L797.7 464Z" fill="#002b5d" stroke="#002b5d"></path><path d="M816.7 0L757.4 0L747.4 81Z" fill="#002b5d" stroke="#002b5d"></path><path d="M839.7 69L747.4 81L808.7 128Z" fill="#00306e" stroke="#00306e"></path><path d="M0 275L52.3 281L39.3 216Z" fill="#00254d" stroke="#00254d"></path><path d="M0 275L0 278L52.3 281Z" fill="#001f3c" stroke="#001f3c"></path><path d="M27.3 387L0 455L46.3 408Z" fill="#00182b" stroke="#00182b"></path><path d="M0 189L0 275L39.3 216Z" fill="#00101c" stroke="#00101c"></path><path d="M101.3 0L77.3 63L130.6 72Z" fill="#00357f" stroke="#00357f"></path><path d="M0 278L0 383L27.3 387Z" fill="#001f3c" stroke="#001f3c"></path><path d="M791.4 600L803.7 600L777.4 553Z" fill="#00182b" stroke="#00182b"></path><path d="M900 393L800.4 320L796.7 358Z" fill="#00101c" stroke="#00101c"></path><path d="M859.7 259L900 206L837.7 183Z" fill="#00306e" stroke="#00306e"></path><path d="M900 146L839.7 69L808.7 128Z" fill="#00357f" stroke="#00357f"></path><path d="M900 393L796.7 358L857.7 421Z" fill="#00254d" stroke="#00254d"></path><path d="M900 398L900 393L857.7 421Z" fill="#1b44c2" stroke="#1b44c2"></path><path d="M900 455L900 398L857.7 421Z" fill="#003990" stroke="#003990"></path><path d="M900 283L900 231L859.7 259Z" fill="#001f3c" stroke="#001f3c"></path><path d="M30.3 104L0 189L96.3 174Z" fill="#00306e" stroke="#00306e"></path><path d="M0 383L0 455L27.3 387Z" fill="#00254d" stroke="#00254d"></path><path d="M43.3 508L59.3 600L135.6 547Z" fill="#0941b1" stroke="#0941b1"></path><path d="M900 146L808.7 128L837.7 183Z" fill="#002b5d" stroke="#002b5d"></path><path d="M77.3 63L30.3 104L119.6 109Z" fill="#00306e" stroke="#00306e"></path><path d="M900 231L900 206L859.7 259Z" fill="#00182b" stroke="#00182b"></path><path d="M166.9 0L101.3 0L130.6 72Z" fill="#00182b" stroke="#00182b"></path><path d="M0 75L0 103L30.3 104Z" fill="#0941b1" stroke="#0941b1"></path><path d="M900 511L797.7 464L777.4 553Z" fill="#00254d" stroke="#00254d"></path><path d="M0 529L59.3 600L43.3 508Z" fill="#003990" stroke="#003990"></path><path d="M101.3 0L91.6 0L77.3 63Z" fill="#003990" stroke="#003990"></path><path d="M0 455L0 496L49.3 455Z" fill="#002b5d" stroke="#002b5d"></path><path d="M900 206L900 146L837.7 183Z" fill="#00182b" stroke="#00182b"></path><path d="M839.7 69L816.7 0L747.4 81Z" fill="#00254d" stroke="#00254d"></path><path d="M900 0L816.7 0L839.7 69Z" fill="#003da1" stroke="#003da1"></path><path d="M0 496L0 529L43.3 508Z" fill="#003da1" stroke="#003da1"></path><path d="M873.7 573L900 511L777.4 553Z" fill="#0941b1" stroke="#0941b1"></path><path d="M0 75L30.3 104L77.3 63Z" fill="#003990" stroke="#003990"></path><path d="M30.3 104L0 103L0 189Z" fill="#003da1" stroke="#003da1"></path><path d="M803.7 600L873.7 573L777.4 553Z" fill="#00254d" stroke="#00254d"></path><path d="M0 0L0 75L77.3 63Z" fill="#00357f" stroke="#00357f"></path><path d="M900 146L900 59L839.7 69Z" fill="#003da1" stroke="#003da1"></path><path d="M0 529L0 600L59.3 600Z" fill="#00101c" stroke="#00101c"></path><path d="M803.7 600L900 600L873.7 573Z" fill="#00306e" stroke="#00306e"></path><path d="M873.7 573L900 600L900 511Z" fill="#00306e" stroke="#00306e"></path><path d="M91.6 0L0 0L77.3 63Z" fill="#1b44c2" stroke="#1b44c2"></path><path d="M900 59L900 0L839.7 69Z" fill="#00101c" stroke="#00101c"></path></g></svg>